# xmcd
#
# Track frame offsets:
# 150
# 27162
# 42869
# 60145
# 76890
# 97440
# 118709
# 132010
# 144766
# 158710
# 176342
# 204978
# 235497
# 254755
#
# Disc length: 3904 seconds
#
# Revision: 1
# Processed by: cddbd v1.5PL3 Copyright (c) Steve Scherf et al.
# Submitted via: CedeCatalogueitor 2.6.0.0 http://personales.ya.com/cdcatalogueitor
#
DISCID=b40f3e0e
DTITLE=The Jackson - Live
DYEAR=1900
DGENRE=
TTITLE0=Openning - Can You Feel It
TTITLE1=Things I Do For You
TTITLE2=Off The Wall
TTITLE3=Ben
TTITLE4=
TTITLE5=She's Out Of My Life
TTITLE6=Movie And Rap
TTITLE7=Medley
TTITLE8=I'll Be There
TTITLE9=Rock With You
TTITLE10=Working Day And Night
TTITLE11=Working Day And Night
TTITLE12=Don't Stop Tilm You Get Enough
TTITLE13=Shake Your Body 
EXTD=
EXTT0=
EXTT1=
EXTT2=
EXTT3=
EXTT4=
EXTT5=
EXTT6=
EXTT7=
EXTT8=
EXTT9=
EXTT10=
EXTT11=
EXTT12=
EXTT13=
PLAYORDER=
